<svg width="40" height="40" viewBox="0 0 40 40" fill="none" xmlns="http://www.w3.org/2000/svg">
<g filter="url(#filter0_i_2543_1194)">
<rect width="40" height="40" rx="20" fill="#4B37CA"/>
<path fill-rule="evenodd" clip-rule="evenodd" d="M10.8618 28.2C9.6858 28.2 9 26.9412 9 25.7514C9 24.5616 9.6858 22.9116 10.8618 22.9116C12.0378 22.9116 13.8414 21.4188 13.8414 17.652C13.8414 17.3946 13.8402 17.1444 13.839 16.9008C13.821 13.5768 13.8102 11.523 17.28 10.821C17.28 9.69 18.36 9 19.8 9C21.24 9 22.32 9.6906 22.32 10.821C25.7898 11.523 25.779 13.5762 25.7616 16.9008C25.7598 17.145 25.7586 17.3952 25.7586 17.652C25.7586 21.4188 27.5622 22.998 28.7382 22.998C29.9142 22.998 30.6 24.7434 30.6 25.7514C30.6 26.9412 29.9142 28.2 28.7382 28.2H10.8618ZM18.4608 30.0042C18.6298 30.1923 18.8365 30.3427 19.0675 30.4455C19.2985 30.5483 19.5486 30.6013 19.8014 30.6009C20.0543 30.6006 20.3042 30.547 20.5349 30.4435C20.7656 30.3401 20.9719 30.1892 21.1404 30.0006C21.436 29.6705 21.5996 29.2431 21.6 28.8L18 28.8048V28.8096C18.0007 29.2511 18.1649 29.6766 18.4608 30.0042ZM20.52 10.9332V12.294L21.963 12.5856C22.7268 12.7404 23.1222 12.9432 23.3322 13.1046C23.514 13.2438 23.637 13.4106 23.7342 13.6938C23.8464 14.0184 23.9178 14.4786 23.9466 15.1764C23.9676 15.6828 23.9646 16.2204 23.9616 16.8498C23.9598 17.1012 23.9586 17.3676 23.9586 17.6526C23.9586 19.8156 24.477 21.5316 25.3266 22.761C26.0922 23.871 27.2262 24.6906 28.4844 24.789C28.5018 24.8142 28.5216 24.8454 28.5444 24.885C28.62 25.0188 28.6884 25.1886 28.737 25.3668C28.7868 25.5504 28.8 25.6884 28.8 25.752C28.8 25.8798 28.7808 26.013 28.746 26.1354C28.71 26.2572 28.665 26.3454 28.6284 26.4006H10.9722C10.9197 26.3187 10.88 26.2293 10.8546 26.1354C10.8187 26.0106 10.8003 25.8813 10.8 25.7514C10.8 25.6194 10.8204 25.4442 10.869 25.254C10.9101 25.0867 10.9726 24.9253 11.055 24.774C11.0712 24.747 11.085 24.7236 11.0982 24.7044C13.6758 24.5394 15.6414 21.672 15.6414 17.6526C15.6414 17.3676 15.6402 17.1006 15.6384 16.8492C15.6354 16.2198 15.6324 15.6828 15.6534 15.1764C15.6822 14.4786 15.7536 14.0184 15.8658 13.6938C15.963 13.4112 16.086 13.2438 16.2678 13.1046C16.4778 12.9432 16.8738 12.7404 17.637 12.5856L19.08 12.294V10.9332C19.188 10.8786 19.419 10.8 19.8 10.8C20.181 10.8 20.412 10.878 20.52 10.9332Z" fill="#F7F7F7"/>
</g>
<defs>
<filter id="filter0_i_2543_1194" x="0" y="0" width="40" height="44" filterUnits="userSpaceOnUse" color-interpolation-filters="sRGB">
<feFlood flood-opacity="0" result="BackgroundImageFix"/>
<feBlend mode="normal" in="SourceGraphic" in2="BackgroundImageFix" result="shape"/>
<feColorMatrix in="SourceAlpha" type="matrix" values="0 0 0 0 0 0 0 0 0 0 0 0 0 0 0 0 0 0 127 0" result="hardAlpha"/>
<feOffset dy="4"/>
<feGaussianBlur stdDeviation="2"/>
<feComposite in2="hardAlpha" operator="arithmetic" k2="-1" k3="1"/>
<feColorMatrix type="matrix" values="0 0 0 0 0 0 0 0 0 0 0 0 0 0 0 0 0 0 0.25 0"/>
<feBlend mode="normal" in2="shape" result="effect1_innerShadow_2543_1194"/>
</filter>
</defs>
</svg>
